<svg width="18" height="17" viewBox="0 0 18 17" version="1.1" xmlns="http://www.w3.org/2000/svg" xmlns:xlink="http://www.w3.org/1999/xlink">
<title>Vector</title>
<desc>Created using Figma</desc>
<g id="Canvas" transform="translate(616 574)">
<g id="Vector">
<use xlink:href="#path0_fill" transform="translate(-616 -574)" fill="#ffffff"/>
<use xlink:href="#path1_fill" transform="translate(-616 -574)" fill="#ffffff"/>
<use xlink:href="#path2_fill" transform="translate(-616 -574)" fill="#ffffff"/>
<use xlink:href="#path3_fill" transform="translate(-616 -574)" fill="#ffffff"/>
<use xlink:href="#path4_fill" transform="translate(-616 -574)" fill="#ffffff"/>
</g>
</g>
<defs>
<path id="path0_fill" d="M 0 3.24341C 0 1.45212 1.4103 0 3.15 0L 14.85 0C 16.5897 0 18 1.45212 18 3.24341L 18 10.6569C 18 12.4482 16.5897 13.9003 14.85 13.9003L 9.22508 13.9003L 10.6499 12.1628L 14.4 12.1628C 15.4562 12.1628 16.3125 11.2812 16.3125 10.1936L 16.3125 3.70676C 16.3125 2.61919 15.4562 1.73754 14.4 1.73754L 3.6 1.73754C 2.54375 1.73754 1.6875 2.61919 1.6875 3.70676L 1.6875 10.1936C 1.6875 11.2812 2.54375 12.1628 3.6 12.1628L 4.61992 12.1628L 4.05 12.8578L 5.24917 13.9003L 3.15 13.9003C 1.4103 13.9003 0 12.4482 0 10.6569L 0 3.24341Z"/>
<path id="path1_fill" d="M 6.975 7.00809C 6.975 7.61585 6.4965 8.10854 5.90625 8.10854C 5.316 8.10854 4.8375 7.61585 4.8375 7.00809C 4.8375 6.40033 5.316 5.90765 5.90625 5.90765C 6.4965 5.90765 6.975 6.40033 6.975 7.00809Z"/>
<path id="path2_fill" d="M 10.125 7.00809C 10.125 7.61585 9.6465 8.10854 9.05625 8.10854C 8.466 8.10854 7.9875 7.61585 7.9875 7.00809C 7.9875 6.40033 8.466 5.90765 9.05625 5.90765C 9.6465 5.90765 10.125 6.40033 10.125 7.00809Z"/>
<path id="path3_fill" d="M 13.275 7.00809C 13.275 7.61585 12.7965 8.10854 12.2062 8.10854C 11.616 8.10854 11.1375 7.61585 11.1375 7.00809C 11.1375 6.40033 11.616 5.90765 12.2062 5.90765C 12.7965 5.90765 13.275 6.40033 13.275 7.00809Z"/>
<path id="path4_fill" d="M 4.60342 12.1127L 6.82564 14.4008C 7.26498 14.8532 7.97729 14.8532 8.41663 14.4008L 10.6388 12.1127L 11.7129 13.2187L 8.33708 16.6947C 7.94167 17.1018 7.30059 17.1018 6.90519 16.6947L 3.52932 13.2187L 4.60342 12.1127Z"/>
</defs>
</svg>
