<svg width="22" height="15" viewBox="0 0 22 15" version="1.1" xmlns="http://www.w3.org/2000/svg" xmlns:xlink="http://www.w3.org/1999/xlink">
<title>Union</title>
<desc>Created using Figma</desc>
<g id="Canvas" transform="translate(561 574)">
<g id="Union">
<use xlink:href="#path0_fill" transform="translate(-561 -574)" fill="#ffffff"/>
<use xlink:href="#path1_fill" transform="translate(-561 -574)" fill="#ffffff"/>
</g>
</g>
<defs>
<path id="path0_fill" d="M 17.5616 13.3787C 17.4231 13.5432 17.175 13.5432 17.0365 13.3787L 12.6835 8.21C 12.4887 7.9787 12.6485 7.61905 12.946 7.61905L 16.6044 7.61905L 16.6044 3.92857C 16.6044 2.8766 15.7751 2.02381 14.7521 2.02381L 8.00781 2.02381L 6.0902 0L 15.6783 0C 17.2767 0 18.5725 1.33248 18.5725 2.97619L 18.5725 7.61905L 21.652 7.61905C 21.9496 7.61905 22.1094 7.9787 21.9146 8.21L 17.5616 13.3787Z"/>
<path id="path1_fill" d="M 4.43843 1.62126C 4.57692 1.45681 4.82501 1.45681 4.96352 1.62126L 9.31651 6.79C 9.5113 7.0213 9.35153 7.38095 9.05396 7.38095L 5.39558 7.38095L 5.39558 11.0714C 5.39558 12.1234 6.22488 12.9762 7.24788 12.9762L 13.9922 12.9762L 15.9098 15L 6.32173 15C 4.72329 15 3.4275 13.6675 3.4275 12.0238L 3.4275 7.38095L 0.347985 7.38095C 0.0504219 7.38095 -0.109354 7.0213 0.0854409 6.79L 4.43843 1.62126Z"/>
</defs>
</svg>
