<svg width="20" height="20" viewBox="0 0 20 20" version="1.1" xmlns="http://www.w3.org/2000/svg" xmlns:xlink="http://www.w3.org/1999/xlink">
<title>Group</title>
<desc>Created using Figma</desc>
<g id="Canvas" transform="translate(438 466)">
<g id="Group">
<g id="Exclude">
<use xlink:href="#path0_fill" transform="translate(-438 -466)" fill="#828282"/>
</g>
<g id="Rectangle">
<use xlink:href="#path1_fill" transform="matrix(0.707107 0.707107 -0.707107 0.707107 -422.947 -452.183)" fill="#828282"/>
</g>
</g>
</g>
<defs>
<path id="path0_fill" fill-rule="evenodd" d="M 8.74469 17.4893C 13.5742 17.4893 17.4893 13.5742 17.4893 8.74466C 17.4893 3.91513 13.5742 0 8.74469 0C 3.91513 0 0 3.91513 0 8.74466C 0 13.5742 3.91513 17.4893 8.74469 17.4893ZM 8.74466 15.7404C 12.6083 15.7404 15.7404 12.6083 15.7404 8.74466C 15.7404 4.88104 12.6083 1.74893 8.74466 1.74893C 4.88104 1.74893 1.74893 4.88104 1.74893 8.74466C 1.74893 12.6083 4.88104 15.7404 8.74466 15.7404Z"/>
<path id="path1_fill" d="M 0 0.874467C 0 0.391512 0.391512 0 0.874467 0L 6.12127 0C 6.60423 0 6.99574 0.391512 6.99574 0.874467C 6.99574 1.35742 6.60423 1.74893 6.12127 1.74893L 0.874467 1.74893C 0.391512 1.74893 0 1.35742 0 0.874467Z"/>
</defs>
</svg>
