<svg width="20" height="18" viewBox="0 0 20 18" version="1.1" xmlns="http://www.w3.org/2000/svg" xmlns:xlink="http://www.w3.org/1999/xlink">
<title>Union</title>
<desc>Created using Figma</desc>
<g id="Canvas" transform="translate(512 467)">
<g id="Union">
<use xlink:href="#path0_fill" transform="translate(-512 -467)" fill="#828282"/>
</g>
</g>
<defs>
<path id="path0_fill" fill-rule="evenodd" d="M 0 1.5C 0 0.67157 0.67157 0 1.5 0L 18.5 0C 19.3284 0 20 0.67157 20 1.5C 20 2.32843 19.3284 3 18.5 3L 1.5 3C 0.67157 3 0 2.32843 0 1.5ZM 0 8.83334C 0 8.00491 0.67157 7.33334 1.5 7.33334L 18.5 7.33334C 19.3284 7.33334 20 8.00491 20 8.83334C 20 9.66177 19.3284 10.3333 18.5 10.3333L 1.5 10.3333C 0.67157 10.3333 0 9.66177 0 8.83334ZM 1.5 15C 0.67157 15 0 15.6716 0 16.5C 0 17.3284 0.67157 18 1.5 18L 18.5 18C 19.3284 18 20 17.3284 20 16.5C 20 15.6716 19.3284 15 18.5 15L 1.5 15Z"/>
</defs>
</svg>
