<svg width="20" height="21" viewBox="0 0 20 21" version="1.1" xmlns="http://www.w3.org/2000/svg" xmlns:xlink="http://www.w3.org/1999/xlink">
<title>Group 3</title>
<desc>Created using Figma</desc>
<g id="Canvas" transform="translate(-359 468)">
<g id="Group 3">
<g id="Exclude">
<use xlink:href="#path0_fill" transform="translate(359 -468)" fill="#828282"/>
</g>
<g id="Rectangle">
<use xlink:href="#path1_fill" transform="translate(371.788 -463.151)" fill="#828282"/>
</g>
<g id="Rectangle">
<use xlink:href="#path2_fill" transform="translate(369.181 -457.443)" fill="#828282"/>
</g>
<g id="Rectangle">
<use xlink:href="#path3_fill" transform="translate(365.922 -451.888)" fill="#828282"/>
</g>
</g>
</g>
<defs>
<path id="path0_fill" fill-rule="evenodd" d="M 8.60596 0.0694433C 8.36862 -0.0717005 8.06677 0.00914058 7.93176 0.250016L 0.276793 13.9086C 0.23773 13.9783 0.215697 14.0568 0.212523 14.1374L 0.000425518 19.5363C -0.0156572 19.9461 0.427489 20.2096 0.763945 19.9904L 5.19659 17.1017C 5.26282 17.0586 5.31775 16.9997 5.35681 16.93L 13.0118 3.27141C 13.1468 3.03053 13.0638 2.72081 12.8265 2.57967L 8.60596 0.0694433ZM 11.4095 3.0937C 11.6468 3.23485 11.7298 3.54457 11.5948 3.78545L 4.77814 15.9483C 4.73865 16.0187 4.68295 16.0781 4.61578 16.1214L 1.9787 17.8205C 1.64306 18.0368 1.20321 17.7752 1.21719 17.3676L 1.32709 14.1654C 1.32989 14.0838 1.35196 14.0044 1.39145 13.934L 8.2081 1.7712C 8.34311 1.53032 8.64496 1.44945 8.88229 1.59062L 11.4095 3.0937Z"/>
<path id="path1_fill" d="M 0 0.839274C 0 0.375756 0.375756 0 0.839275 0L 6.00428 0C 6.4678 0 6.84355 0.375756 6.84355 0.839274C 6.84355 1.30279 6.4678 1.67855 6.00428 1.67855L 0.839275 1.67855C 0.375756 1.67855 0 1.30279 0 0.839274Z"/>
<path id="path2_fill" d="M 0 0.839274C 0 0.375756 0.375756 0 0.839275 0L 8.61134 0C 9.07486 0 9.45062 0.375756 9.45062 0.839274C 9.45062 1.30279 9.07486 1.67855 8.61134 1.67855L 0.839274 1.67855C 0.375756 1.67855 0 1.30279 0 0.839274Z"/>
<path id="path3_fill" d="M 0 0.839274C 0 0.375756 0.375756 0 0.839275 0L 11.8702 0C 12.3337 0 12.7095 0.375756 12.7095 0.839274C 12.7095 1.30279 12.3337 1.67855 11.8702 1.67855L 0.839275 1.67855C 0.375757 1.67855 0 1.30279 0 0.839274Z"/>
</defs>
</svg>
